<svg width="160" height="41" viewBox="0 0 160 41" fill="none" xmlns="http://www.w3.org/2000/svg">
<path d="M56.856 15.456H51.288V12.912H65.568V15.456H59.976V30H56.856V15.456ZM72.1209 17.592C72.5849 17.592 72.9849 17.656 73.3209 17.784L73.2969 20.52C72.7849 20.312 72.2569 20.208 71.7129 20.208C70.6889 20.208 69.9049 20.504 69.3609 21.096C68.8329 21.688 68.5689 22.472 68.5689 23.448V30H65.5929V21.312C65.5929 20.032 65.5289 18.888 65.4009 17.88H68.2089L68.4489 20.016C68.7529 19.232 69.2329 18.632 69.8889 18.216C70.5449 17.8 71.2889 17.592 72.1209 17.592ZM86.349 17.88V30H83.397V28.056C83.029 28.728 82.501 29.256 81.813 29.64C81.125 30.008 80.341 30.192 79.461 30.192C78.405 30.192 77.469 29.936 76.653 29.424C75.837 28.912 75.205 28.184 74.757 27.24C74.309 26.296 74.085 25.2 74.085 23.952C74.085 22.704 74.309 21.6 74.757 20.64C75.221 19.664 75.861 18.912 76.677 18.384C77.493 17.84 78.421 17.568 79.461 17.568C80.341 17.568 81.125 17.76 81.813 18.144C82.501 18.512 83.029 19.032 83.397 19.704V17.88H86.349ZM80.277 27.84C81.269 27.84 82.037 27.496 82.581 26.808C83.125 26.12 83.397 25.152 83.397 23.904C83.397 22.624 83.125 21.64 82.581 20.952C82.037 20.264 81.261 19.92 80.253 19.92C79.261 19.92 78.485 20.28 77.925 21C77.381 21.704 77.109 22.688 77.109 23.952C77.109 25.2 77.381 26.16 77.925 26.832C78.485 27.504 79.269 27.84 80.277 27.84ZM95.3524 14.712C94.0564 14.712 93.4084 15.424 93.4084 16.848V17.88H96.1204V20.136H93.4084V30H90.4084V20.136H88.1044V17.88H90.4084V16.704C90.4084 15.264 90.7684 14.16 91.4884 13.392C92.2244 12.608 93.2724 12.216 94.6324 12.216C95.3844 12.216 96.0164 12.312 96.5284 12.504V14.88C96.0804 14.768 95.6884 14.712 95.3524 14.712ZM109.904 17.88V30H106.952V28.056C106.584 28.728 106.056 29.256 105.368 29.64C104.68 30.008 103.896 30.192 103.016 30.192C101.96 30.192 101.024 29.936 100.208 29.424C99.3917 28.912 98.7597 28.184 98.3117 27.24C97.8637 26.296 97.6397 25.2 97.6397 23.952C97.6397 22.704 97.8637 21.6 98.3117 20.64C98.7757 19.664 99.4157 18.912 100.232 18.384C101.048 17.84 101.976 17.568 103.016 17.568C103.896 17.568 104.68 17.76 105.368 18.144C106.056 18.512 106.584 19.032 106.952 19.704V17.88H109.904ZM103.832 27.84C104.824 27.84 105.592 27.496 106.136 26.808C106.68 26.12 106.952 25.152 106.952 23.904C106.952 22.624 106.68 21.64 106.136 20.952C105.592 20.264 104.816 19.92 103.808 19.92C102.816 19.92 102.04 20.28 101.48 21C100.936 21.704 100.664 22.688 100.664 23.952C100.664 25.2 100.936 26.16 101.48 26.832C102.04 27.504 102.824 27.84 103.832 27.84ZM113.171 12.336H116.147V30H113.171V12.336ZM131.141 17.88V29.616C131.141 31.504 130.621 32.936 129.581 33.912C128.541 34.888 127.013 35.376 124.997 35.376C123.125 35.376 121.477 34.984 120.053 34.2L120.533 31.92C122.005 32.688 123.469 33.072 124.925 33.072C127.085 33.072 128.165 32 128.165 29.856V27.456C127.797 28.112 127.261 28.648 126.557 29.064C125.853 29.464 125.061 29.664 124.181 29.664C123.125 29.664 122.181 29.416 121.349 28.92C120.533 28.408 119.893 27.696 119.429 26.784C118.981 25.856 118.757 24.8 118.757 23.616C118.757 22.432 118.981 21.384 119.429 20.472C119.893 19.544 120.533 18.832 121.349 18.336C122.181 17.824 123.125 17.568 124.181 17.568C125.077 17.568 125.869 17.76 126.557 18.144C127.261 18.512 127.797 19.032 128.165 19.704V17.88H131.141ZM124.973 27.312C125.965 27.312 126.741 26.984 127.301 26.328C127.877 25.672 128.165 24.768 128.165 23.616C128.165 22.464 127.885 21.56 127.325 20.904C126.765 20.248 125.981 19.92 124.973 19.92C123.981 19.92 123.197 20.248 122.621 20.904C122.061 21.56 121.781 22.464 121.781 23.616C121.781 24.768 122.061 25.672 122.621 26.328C123.197 26.984 123.981 27.312 124.973 27.312ZM145.974 17.88V30H143.022V28.056C142.654 28.728 142.126 29.256 141.438 29.64C140.75 30.008 139.966 30.192 139.086 30.192C138.03 30.192 137.094 29.936 136.278 29.424C135.462 28.912 134.83 28.184 134.382 27.24C133.934 26.296 133.71 25.2 133.71 23.952C133.71 22.704 133.934 21.6 134.382 20.64C134.846 19.664 135.486 18.912 136.302 18.384C137.118 17.84 138.046 17.568 139.086 17.568C139.966 17.568 140.75 17.76 141.438 18.144C142.126 18.512 142.654 19.032 143.022 19.704V17.88H145.974ZM139.902 27.84C140.894 27.84 141.662 27.496 142.206 26.808C142.75 26.12 143.022 25.152 143.022 23.904C143.022 22.624 142.75 21.64 142.206 20.952C141.662 20.264 140.886 19.92 139.878 19.92C138.886 19.92 138.11 20.28 137.55 21C137.006 21.704 136.734 22.688 136.734 23.952C136.734 25.2 137.006 26.16 137.55 26.832C138.11 27.504 138.894 27.84 139.902 27.84ZM155.769 17.592C156.233 17.592 156.633 17.656 156.969 17.784L156.945 20.52C156.433 20.312 155.905 20.208 155.361 20.208C154.337 20.208 153.553 20.504 153.009 21.096C152.481 21.688 152.217 22.472 152.217 23.448V30H149.241V21.312C149.241 20.032 149.177 18.888 149.049 17.88H151.857L152.097 20.016C152.401 19.232 152.881 18.632 153.537 18.216C154.193 17.8 154.937 17.592 155.769 17.592Z" fill="white"/>
<path d="M41 20.5C41 31.8218 31.8218 41 20.5 41C9.17816 41 0 31.8218 0 20.5C0 9.17816 9.17816 0 20.5 0C31.8218 0 41 9.17816 41 20.5Z" fill="white"/>
<path d="M19.344 15.244H13.312V12.488H28.782V15.244H22.724V31H19.344V15.244Z" fill="#5B9BF3"/>
</svg>
